<svg id="Layer_1" data-name="Layer 1" xmlns="http://www.w3.org/2000/svg" viewBox="0 0 1984.25 2834.65"><defs><style>.cls-1{fill:#fff;}</style></defs><path class="cls-1" d="M231.92,2023c6.43-223.87,84.42-416.08,254.4-566.74,4.91-4.34,9.13-9.68,14.55-13.19,25.89-16.73,23.28-29.32,0-49.4C308.7,1227.52,217.1,1015.31,232.57,762.93c22.07-359.83,285-636.34,619.31-699.09,38.46-7.21,77.8-9.8,116.75-14.34,22.56-2.64,33.94,5.16,33.19,30.39q-3.86,129.71-5,259.49c-.17,23-12.52,23.67-29.84,25.24-159.87,14.55-282.16,89.62-364,228.62C450.52,852,613.33,1201.43,910,1252.53c265.77,45.77,498.19-130.13,527.24-400.19,3.24-30.18,12.45-42.39,45.3-41.3,78.63,2.6,157.43,2,236.1.25,28.32-.61,35.72,9.31,34.56,36.21-9.59,222.29-102.91,403.42-269.52,547.77-21.68,18.78-22.51,26.64-1,44.84,107.42,90.74,185.49,202.12,232,335.5,9,25.92,8.87,38-22.65,46-77.35,19.66-153.59,43.78-230,67.09-25.05,7.64-39,7.79-51.07-23-73.14-186.9-238-294.22-438.49-289.47C751,1581.43,553.87,1776.48,546.73,1997.6c-8.3,256.71,174,461.16,429.12,473.44,137.86,6.64,256.36-44.78,349.82-148.52,38.42-42.65,37.8-42.89,85.42-9.49,61.19,42.93,122.21,86.12,184.2,127.87,19.78,13.32,22.36,23.62,7,43-136,172-311.3,274.25-530,297.08C838,2805.45,634.4,2732.75,464.6,2572,339,2453.05,263.82,2305,239.36,2132.51c-2.58-18.14-5.94-36.24-7.17-54.47S231.92,2041.33,231.92,2023Z"/><path class="cls-1" d="M1597.45,356.34c-39.24,0-78.51-.82-117.72.31-21.26.6-30.5-5.76-30.22-28.68q1.47-121.67,0-243.36c-.3-23.2,9.48-28.67,30.45-28.47q119.67,1.15,239.38,0c21.44-.21,30.82,6.8,30.62,29.22-.72,81.12-1,162.25.12,243.36.32,23.85-10.48,28.42-30.93,27.94C1678.57,355.69,1638,356.36,1597.45,356.34Z"/></svg>